

 
http://www.imdb.com/title/tt2085957/


Two roommates with abusive men in their pasts consider murder as an option to help settle each others problems. 



Director:
 Michael Greenspan

Writers:
 Christopher Dodd , Michael Greenspan 

Stars:
 Katie Cassidy, Tracy Spiridakos, Donal Logue

Genres:
 Drama | Thriller 

Country:
Canada

Language:
English 



Format                                   : AVI
Format/Info                              : Audio Video Interleave
File size                                : 657 MiB
Duration                                 : 1h 34mn
Overall bit rate                         : 967 Kbps

Video
ID                                       : 0
Format                                   : MPEG-4 Visual
Format profile                           : Simple@L3
Format settings, BVOP                    : No
Format settings, QPel                    : No
Format settings, GMC                     : No warppoints
Format settings, Matrix                  : Default (H.263)
Codec ID                                 : XVID
Codec ID/Hint                            : XviD
Duration                                 : 1h 34mn
Source duration                          : 1h 34mn
Bit rate                                 : 826 Kbps
Width                                    : 624 pixels
Height                                   : 336 pixels
Display aspect ratio                     : 1.85:1
Frame rate                               : 23.976 fps
Color space                              : YUV
Chroma subsampling                       : 4:2:0
Bit depth                                : 8 bits
Scan type                                : Progressive
Compression mode                         : Lossy
Bits/(Pixel*Frame)                       : 0.164
Stream size                              : 561 MiB (85%)
Writing library                          : XviD 1.1.2 (UTC 2006-11-01)

Audio
ID                                       : 1
Format                                   : MPEG Audio
Format version                           : Version 1
Format profile                           : Layer 3
Mode                                     : Joint stereo
Mode extension                           : MS Stereo
Codec ID                                 : 55
Codec ID/Hint                            : MP3
Duration                                 : 1h 34mn
Bit rate mode                            : Constant
Bit rate                                 : 128 Kbps
Channel(s)                               : 2 channels
Sampling rate                            : 48.0 KHz
Compression mode                         : Lossy
Stream size                              : 86.9 MiB (13%)
Alignment                                : Split accross interleaves
Interleave, duration                     : 24 ms (0.58 video frame)
Interleave, preload duration             : 589 ms
Writing library                          : LAME3.98


 
http://bayimg.com/aaJmLAAeH
 
http://bayimg.com/aAjMMAaEH
 
http://bayimg.com/aAjmOAAeh